<?xml version="1.0" standalone="no"?><!DOCTYPE svg PUBLIC "-//W3C//DTD SVG 1.1//EN" "http://www.w3.org/Graphics/SVG/1.1/DTD/svg11.dtd"><svg t="1620124104188" class="icon" viewBox="0 0 1024 1024" version="1.1" xmlns="http://www.w3.org/2000/svg" p-id="11287" xmlns:xlink="http://www.w3.org/1999/xlink" width="200" height="200"><defs><style type="text/css"></style></defs><path d="M754.801778 753.891556V475.591111a238.933333 238.933333 0 0 0-9.557334-65.991111 17.066667 17.066667 0 1 0-32.768 9.557333 204.8 204.8 0 0 1 8.192 57.116445v277.162666H420.522667a17.066667 17.066667 0 0 0 0 34.133334H750.933333a33.678222 33.678222 0 0 1 33.678223 33.450666v34.588445a25.941333 25.941333 0 0 1-25.941334 25.713778h-493.795555a25.941333 25.941333 0 0 1-25.941334-25.713778v-34.588445a33.678222 33.678222 0 0 1 34.133334-33.450666 16.839111 16.839111 0 0 0 11.605333-4.551111h2.048a17.066667 17.066667 0 0 0 17.066667-17.066667V475.591111a209.578667 209.578667 0 0 1 131.527111-192.739555 17.066667 17.066667 0 0 0-13.198222-32.540445 240.981333 240.981333 0 0 0-152.917334 224.369778v279.210667a68.266667 68.266667 0 0 0-64.398222 68.266666v33.450667a60.074667 60.074667 0 0 0 60.074667 59.847111h200.476444a45.511111 45.511111 0 0 0 93.070222 0h200.476445A60.074667 60.074667 0 0 0 819.2 855.608889v-34.588445a68.266667 68.266667 0 0 0-64.398222-67.128888z" p-id="11288"></path><path d="M632.376889 232.789333m-153.6 0a153.6 153.6 0 1 0 307.2 0 153.6 153.6 0 1 0-307.2 0Z" p-id="11289"></path></svg>