<?xml version="1.0" standalone="no"?><!DOCTYPE svg PUBLIC "-//W3C//DTD SVG 1.1//EN" "http://www.w3.org/Graphics/SVG/1.1/DTD/svg11.dtd"><svg t="1616864261164" class="icon" viewBox="0 0 1024 1024" version="1.1" xmlns="http://www.w3.org/2000/svg" p-id="2806" xmlns:xlink="http://www.w3.org/1999/xlink" width="200" height="200"><defs><style type="text/css"></style></defs><path d="M876.032 124.587H147.968c-43.008 0-79.872 32.256-79.872 70.656v484.864c0 38.4 36.352 70.656 79.872 70.656H309.76v111.104c0 12.288 9.216 24.064 20.48 28.16 4.608 2.048 9.216 2.048 13.824 2.048 9.216 0 18.432-4.096 25.088-10.24L514.56 750.763h361.984c43.008 0 79.872-32.256 79.872-70.656V195.243c-0.512-37.888-36.864-70.656-80.384-70.656z m11.264 555.52c0 6.144-4.608 10.24-11.264 10.24H500.736c-9.216 0-18.432 4.096-25.088 10.24l-95.744 89.088v-68.608c0-16.384-15.872-30.208-34.304-30.208H147.456c-6.656 0-11.264-4.096-11.264-10.24V195.755c0-6.144 4.608-10.24 11.264-10.24H875.52c6.656 0 11.264 4.096 11.264 10.24l0.512 484.352z" p-id="2807"></path><path d="M512 495.275H284.672c-18.432 0-34.304 15.872-34.304 34.304s15.872 34.304 34.304 34.304H512c18.432 0 34.304-15.872 34.304-34.304S530.432 495.275 512 495.275z m170.496-159.232H284.16c-18.432 0-34.304 15.872-34.304 34.304s15.872 34.304 34.304 34.304h398.336c18.432 0 34.304-15.872 34.304-34.304s-15.872-34.304-34.304-34.304z" p-id="2808"></path></svg>