<?xml version="1.0" standalone="no"?><!DOCTYPE svg PUBLIC "-//W3C//DTD SVG 1.1//EN" "http://www.w3.org/Graphics/SVG/1.1/DTD/svg11.dtd"><svg t="1616864027282" class="icon" viewBox="0 0 1024 1024" version="1.1" xmlns="http://www.w3.org/2000/svg" p-id="2061" xmlns:xlink="http://www.w3.org/1999/xlink" width="200" height="200"><defs><style type="text/css"></style></defs><path d="M366.364444 845.923556a98.602667 98.602667 0 0 1-98.588444 98.588444H137.827556a98.602667 98.602667 0 0 1-98.588445-98.588444V531.100444a98.602667 98.602667 0 0 1 98.588445-98.588444h129.948444a98.602667 98.602667 0 0 1 98.588444 98.588444v314.823112z m-56.888888-314.823112a41.699556 41.699556 0 0 0-41.699556-41.699555H137.827556a41.699556 41.699556 0 0 0-41.699556 41.699555V845.937778a41.699556 41.699556 0 0 0 41.699556 41.699555h129.948444a41.699556 41.699556 0 0 0 41.699556-41.699555V531.100444z" p-id="2062"></path><path d="M224.142222 820.067556a24.888889 24.888889 0 0 1-24.888889 24.888888h-7.111111a24.888889 24.888889 0 0 1-24.888889-24.888888v-7.111112c0-13.752889 11.150222-24.888889 24.888889-24.888888h7.111111c13.738667 0 24.888889 11.136 24.888889 24.888888v7.111112zM580.764444 945.009778c-70.784 0-146.816-8.988444-172.600888-116.266667-0.512-2.161778 0.867556-4.408889 0.867555-6.641778V462.592c0-3.968-0.810667-7.907556 0.810667-11.534222l4.807111-12.728889c7.936-24.561778 31.047111-61.994667 68.366222-119.964445 25.514667-39.651556 51.712-80.668444 59.861333-101.290666 13.866667-35.086222 13.809778-82.389333 12.657778-97.635556a28.416 28.416 0 0 1 13.653334-26.524444c2.375111-1.436444 23.964444-13.937778 51.882666-13.937778 17.792 0 34.204444 4.935111 48.810667 14.634667 39.552 26.296889 83.854222 67.384889 75.136 152.405333-2.716444 26.808889-13.952 51.953778-24.803556 76.288-7.125333 15.985778-13.852444 31.089778-17.621333 45.354667-0.768 2.901333-0.853333 10.780444-0.896 17.379555 31.018667 2.673778 62.236444 5.034667 90.325333 5.034667 17.706667 0 32.113778-0.142222 43.747556-0.270222 15.061333-0.156444 25.514667-0.241778 32.853333 0.028444 5.361778 0.113778 10.396444 0.284444 15.032889 0.896a115.754667 115.754667 0 0 1 77.141333 44.714667 115.768889 115.768889 0 0 1 22.926223 86.172444 116.508444 116.508444 0 0 1-43.249778 75.960889 103.239111 103.239111 0 0 1 11.605333 62.947556 102.343111 102.343111 0 0 1-34.56 64.298666 11.804444 11.804444 0 0 0 0.056889 1.066667 90.481778 90.481778 0 0 1-27.392 106.780444c4.892444 11.946667 6.513778 25.272889 4.650667 39.125334-3.783111 28.245333-23.836444 52.081778-51.456 61.482666-16.711111 8.433778-37.816889 10.197333-65.948445 10.197334-9.486222 0-20.067556-0.199111-31.815111-0.412445-14.321778-0.270222-30.449778-0.568889-48.554666-0.568889-22.570667 0-43.790222 0.696889-64.312889 1.365334-18.417778 0.597333-35.754667 1.152-51.982223 1.152zM465.92 818.631111c14.222222 59.747556 46.165333 69.504 116.48 69.504 15.658667 0 31.544889-0.540444 49.294222-1.123555 21.006222-0.682667 42.282667-1.393778 65.777778-1.393778 18.503111 0 34.759111 0.298667 49.393778 0.583111 11.377778 0.213333 21.504 0.398222 30.663111 0.398222 8.206222 0 33.152 0 40.618667-4.295111 1.92-1.095111 3.925333-1.976889 6.044444-2.602667 6.129778-1.806222 13.198222-7.409778 14.264889-15.459555 0.440889-3.313778 0.469333-8.064-1.891556-11.946667-6.115556-9.998222-7.751111-23.495111-4.437333-36.167111 2.944-11.221333 9.472-20.152889 18.417778-25.159111a33.607111 33.607111 0 0 0 17.080889-24.988445 33.379556 33.379556 0 0 0-2.588445-18.190222c-6.471111-14.264889-8.092444-48.625778 11.904-63.345778a46.108444 46.108444 0 0 0 18.716445-31.416888 46.407111 46.407111 0 0 0-7.196445-31.601778c-12.515556-19.086222-5.646222-53.020444 13.340445-66.019556a59.548444 59.548444 0 0 0-25.713778-108.273778 56.945778 56.945778 0 0 0-7.580445-0.412444l-2.019555-0.014222c-6.656-0.270222-16.540444-0.156444-30.165333 0-11.790222 0.113778-26.368 0.270222-44.316445 0.270222-36.152889 0-75.576889-3.498667-113.706667-6.869333l-8.632888-0.768a28.458667 28.458667 0 0 1-25.770667-31.473778c0.810667-7.182222 0.853333-14.933333 0.896-22.428445 0.085333-11.491556 0.156444-22.314667 2.787555-32.298666 4.949333-18.716444 12.928-36.650667 20.664889-54.001778 9.429333-21.162667 18.346667-41.159111 20.152889-58.922667 5.845333-57.002667-21.518222-80.284444-50.048-99.256889-7.495111-4.963556-17.251556-5.930667-25.642666-4.266666-0.184889 24.405333-2.929778 65.351111-17.152 101.304889-10.225778 25.799111-36.892444 67.256889-65.137778 111.146666-25.472 39.552-57.159111 88.803556-62.663111 107.320889-0.341333 1.152 0.867556 2.289778 0.369777 3.399111l-2.204444 8.760889v350.008889z" p-id="2063"></path><path d="M706.744889 844.956444h-0.270222c-1.621333 0-3.086222 2.631111-4.423111 2.403556-7.751111-0.128-13.980444-5.034667-13.980445-12.814222 0-7.864889 6.357333-13.525333 14.222222-13.525334 4.636444 0 18.730667 0.341333 19.015111 14.321778 0.042667 2.019556-0.412444 1.322667-1.28 3.072-2.033778 5.376-7.224889 6.542222-13.283555 6.542222zM602.709333 854.684444c-34.545778 0-64.142222-6.897778-91.477333-38.385777a14.222222 14.222222 0 1 1 21.475556-18.631111c28.088889 32.327111 56.576 30.350222 108.288 26.723555 6.542222-0.455111 13.354667-0.924444 20.48-1.351111a14.364444 14.364444 0 0 1 15.047111 13.354667 14.222222 14.222222 0 0 1-13.354667 15.032889c-7.011556 0.412444-13.738667 0.896-20.195556 1.336888-14.165333 0.981333-27.562667 1.92-40.263111 1.92z" p-id="2064"></path></svg>