<?xml version="1.0" standalone="no"?><!DOCTYPE svg PUBLIC "-//W3C//DTD SVG 1.1//EN" "http://www.w3.org/Graphics/SVG/1.1/DTD/svg11.dtd"><svg t="1620124264420" class="icon" viewBox="0 0 1024 1024" version="1.1" xmlns="http://www.w3.org/2000/svg" p-id="15644" xmlns:xlink="http://www.w3.org/1999/xlink" width="200" height="200"><defs><style type="text/css"></style></defs><path d="M616.533333 768a106.666667 106.666667 0 0 1-209.066666 0l44.202666 0.042667a64 64 0 0 0 120.661334 0h44.202666zM512 170.666667a106.666667 106.666667 0 0 1 106.453333 99.669333l0.213334 6.997333c0 1.408 0 2.816-0.085334 4.224A234.666667 234.666667 0 0 1 746.666667 490.666667V640l77.525333 93.013333a21.333333 21.333333 0 0 1-16.426667 34.986667H216.234667a21.333333 21.333333 0 0 1-16.426667-34.986667L277.333333 640v-149.333333a234.666667 234.666667 0 0 1 128.128-209.152L405.333333 277.333333A106.666667 106.666667 0 0 1 512 170.666667z m0 42.666666a64 64 0 0 0-63.701333 56.832l-0.298667 5.973334 0.853333 31.146666-24.021333 12.245334a192 192 0 0 0-104.618667 161.664L320 490.666667v164.778666L261.717333 725.333333h500.522667L704 655.445333V490.666667c0-69.76-37.546667-132.821333-96.64-166.698667l-8.192-4.437333-24.277333-12.373334 1.109333-29.824A64 64 0 0 0 512 213.333333z" fill="#999999" p-id="15645"></path></svg>